<?xml version="1.0" standalone="no"?>
<!DOCTYPE svg PUBLIC "-//W3C//DTD SVG 20010904//EN"
 "http://www.w3.org/TR/2001/REC-SVG-20010904/DTD/svg10.dtd">
<svg version="1.0" xmlns="http://www.w3.org/2000/svg"
 width="700.000000pt" height="700.000000pt" viewBox="0 0 700.000000 700.000000"
 preserveAspectRatio="xMidYMid meet">
<metadata>
Created by potrace 1.11, written by Peter Selinger 2001-2013
</metadata>
<g transform="translate(0.000000,700.000000) scale(0.100000,-0.100000)"
fill="#000000" stroke="none">
<path d="M3380 6590 c-63 -39 -122 -75 -130 -80 -8 -5 -32 -20 -54 -32 -21
-13 -46 -27 -55 -33 -46 -28 -585 -352 -609 -366 -15 -9 -119 -71 -232 -139
-113 -68 -214 -128 -225 -134 -11 -6 -33 -20 -50 -30 -16 -11 -46 -29 -65 -41
-36 -22 -549 -330 -624 -374 -23 -13 -54 -32 -71 -42 -16 -10 -47 -28 -68 -39
-20 -11 -37 -24 -37 -28 0 -8 405 -254 428 -260 6 -2 12 -8 12 -13 0 -5 4 -9
9 -9 5 0 60 -30 121 -67 61 -38 131 -79 154 -93 24 -14 103 -61 175 -105 73
-44 140 -84 150 -90 15 -9 554 -333 591 -355 8 -5 38 -23 65 -38 28 -16 110
-66 184 -111 74 -44 138 -81 143 -81 4 0 8 -4 8 -9 0 -5 6 -11 13 -13 8 -2
140 -79 295 -172 l282 -170 1 -1565 c1 -861 1 -1570 0 -1574 -1 -5 3 -7 8 -5
5 1 511 304 1124 673 614 369 1135 682 1159 696 l43 25 0 1585 0 1584 -1060
637 c-583 350 -1075 645 -1092 655 -18 10 -103 61 -189 113 -87 52 -161 97
-166 99 -5 2 -33 18 -61 37 -28 19 -54 34 -57 34 -3 0 -57 -32 -120 -70z"/>
<path d="M875 3324 l0 -1407 80 -49 c44 -26 87 -52 95 -58 12 -8 84 -51 159
-95 25 -15 324 -195 341 -206 8 -5 249 -149 535 -320 286 -171 551 -329 588
-352 37 -23 76 -46 85 -52 19 -11 164 -98 197 -118 11 -7 43 -27 72 -44 30
-18 56 -33 59 -33 3 0 20 -10 37 -22 31 -23 75 -48 83 -48 2 0 4 240 4 533 l0
532 -312 188 c-172 103 -324 194 -338 202 -14 9 -200 121 -415 249 l-390 234
-3 876 -2 876 -38 23 c-20 12 -46 28 -57 34 -11 6 -185 111 -387 232 -201 122
-372 223 -380 226 -11 4 -13 -230 -13 -1401z"/>
</g>
</svg>
